<svg xmlns="http://www.w3.org/2000/svg" width="28" height="28" viewBox="0 0 28 28">
  <g id="Group_12518" data-name="Group 12518" transform="translate(9725 -304)">
    <path id="remove-file" d="M20.95,12.464,17.414,16l3.536,3.536a1,1,0,1,1-1.414,1.414L16,17.414,12.464,20.95a1,1,0,1,1-1.414-1.414L14.586,16,11.05,12.464a1,1,0,0,1,1.414-1.414L16,14.586l3.536-3.536a1,1,0,1,1,1.414,1.414Z" transform="translate(-9726.758 302)" fill="#999"/>
    <path id="remove-file-2" data-name="remove-file" d="M23,2H9A7.008,7.008,0,0,0,2,9V23a7.008,7.008,0,0,0,7,7H23a7.008,7.008,0,0,0,7-7V9A7.008,7.008,0,0,0,23,2Zm5,21a5.006,5.006,0,0,1-5,5H9a5.006,5.006,0,0,1-5-5V9A5.006,5.006,0,0,1,9,4H23a5.006,5.006,0,0,1,5,5Z" transform="translate(-9727 302)" fill="#999" opacity="0.2"/>
  </g>
</svg>
